<svg xmlns="http://www.w3.org/2000/svg" xmlns:xlink="http://www.w3.org/1999/xlink" width="459" zoomAndPan="magnify" viewBox="0 0 344.25 129.000003" height="172" preserveAspectRatio="xMidYMid meet" version="1.0"><defs><g/></defs><g fill="#d32f23" fill-opacity="0.4196"><g transform="translate(11.546627, 76.573557)"><g><path d="M 34.15625 -14.953125 C 33.613281 -10.140625 31.71875 -6.441406 28.46875 -3.859375 C 25.21875 -1.285156 21.3125 0 16.75 0 L 1.484375 0 C 1.191406 0 0.957031 -0.0976562 0.78125 -0.296875 C 0.601562 -0.492188 0.539062 -0.765625 0.59375 -1.109375 L 6.703125 -50.984375 C 6.742188 -51.328125 6.875 -51.597656 7.09375 -51.796875 C 7.320312 -51.992188 7.585938 -52.09375 7.890625 -52.09375 L 20.984375 -52.09375 C 25.742188 -52.09375 29.453125 -51.085938 32.109375 -49.078125 C 34.765625 -47.066406 36.09375 -44.03125 36.09375 -39.96875 C 36.09375 -39.46875 36.046875 -38.625 35.953125 -37.4375 C 35.347656 -32.820312 33.535156 -29.394531 30.515625 -27.15625 C 30.210938 -27.007812 30.140625 -26.863281 30.296875 -26.71875 C 32.972656 -24.4375 34.3125 -21.234375 34.3125 -17.109375 C 34.3125 -16.671875 34.257812 -15.953125 34.15625 -14.953125 Z M 19.28125 -40.109375 C 19.03125 -40.109375 18.90625 -39.984375 18.90625 -39.734375 L 17.9375 -32.15625 C 17.9375 -31.90625 18.035156 -31.78125 18.234375 -31.78125 L 18.6875 -31.78125 C 20.8125 -31.78125 22.070312 -33.171875 22.46875 -35.953125 L 22.546875 -36.90625 C 22.546875 -39.039062 21.601562 -40.109375 19.71875 -40.109375 Z M 17.109375 -11.984375 C 18.203125 -11.984375 19.109375 -12.503906 19.828125 -13.546875 C 20.546875 -14.585938 20.90625 -16.078125 20.90625 -18.015625 C 20.90625 -19.148438 20.679688 -20.066406 20.234375 -20.765625 C 19.796875 -21.460938 19.175781 -21.8125 18.375 -21.8125 L 17.046875 -21.8125 C 16.796875 -21.8125 16.671875 -21.6875 16.671875 -21.4375 L 15.546875 -12.359375 C 15.453125 -12.109375 15.554688 -11.984375 15.859375 -11.984375 Z M 17.109375 -11.984375 "/></g></g></g><g fill="#d32f23" fill-opacity="0.4196"><g transform="translate(46.45101, 76.573557)"><g><path d="M 23.140625 0 C 22.453125 0 22.128906 -0.347656 22.171875 -1.046875 L 22.03125 -6.703125 C 22.082031 -6.796875 22.054688 -6.878906 21.953125 -6.953125 C 21.859375 -7.023438 21.757812 -7.0625 21.65625 -7.0625 L 15.1875 -7.0625 C 14.9375 -7.0625 14.757812 -6.941406 14.65625 -6.703125 L 13.25 -1.046875 C 13.101562 -0.347656 12.679688 0 11.984375 0 L 0.671875 0 C -0.078125 0 -0.351562 -0.394531 -0.15625 -1.1875 L 16.21875 -51.125 C 16.414062 -51.769531 16.863281 -52.09375 17.5625 -52.09375 L 30.734375 -52.09375 C 31.429688 -52.09375 31.804688 -51.769531 31.859375 -51.125 L 35.953125 -1.1875 L 35.953125 -1.046875 C 35.953125 -0.347656 35.578125 0 34.828125 0 Z M 17.71875 -18.15625 C 17.613281 -17.90625 17.6875 -17.78125 17.9375 -17.78125 L 21.4375 -17.78125 C 21.582031 -17.78125 21.707031 -17.90625 21.8125 -18.15625 L 21.515625 -31.921875 C 21.515625 -32.117188 21.453125 -32.207031 21.328125 -32.1875 C 21.203125 -32.164062 21.140625 -32.078125 21.140625 -31.921875 Z M 17.71875 -18.15625 "/></g></g></g><g fill="#d32f23" fill-opacity="0.4196"><g transform="translate(84.77886, 76.573557)"><g><path d="M 20.171875 0 C 19.578125 0 19.226562 -0.320312 19.125 -0.96875 L 16.96875 -19.71875 C 16.96875 -19.914062 16.894531 -20.015625 16.75 -20.015625 C 16.550781 -20.015625 16.453125 -19.890625 16.453125 -19.640625 L 14.140625 -1.109375 C 14.085938 -0.765625 13.945312 -0.492188 13.71875 -0.296875 C 13.5 -0.0976562 13.242188 0 12.953125 0 L 1.484375 0 C 1.191406 0 0.957031 -0.0976562 0.78125 -0.296875 C 0.601562 -0.492188 0.539062 -0.765625 0.59375 -1.109375 L 6.703125 -50.984375 C 6.742188 -51.328125 6.875 -51.597656 7.09375 -51.796875 C 7.320312 -51.992188 7.585938 -52.09375 7.890625 -52.09375 L 24.1875 -52.09375 C 28.15625 -52.09375 31.289062 -50.828125 33.59375 -48.296875 C 35.90625 -45.765625 37.0625 -42.414062 37.0625 -38.25 C 37.0625 -37.0625 37.007812 -36.144531 36.90625 -35.5 C 36.5625 -32.769531 35.789062 -30.328125 34.59375 -28.171875 C 33.40625 -26.015625 31.867188 -24.265625 29.984375 -22.921875 C 29.742188 -22.773438 29.671875 -22.601562 29.765625 -22.40625 L 32.96875 -1.265625 L 32.96875 -0.96875 C 32.96875 -0.664062 32.867188 -0.425781 32.671875 -0.25 C 32.472656 -0.0820312 32.222656 0 31.921875 0 Z M 19.28125 -40.109375 C 19.03125 -40.109375 18.90625 -39.984375 18.90625 -39.734375 L 17.78125 -31.03125 C 17.78125 -30.78125 17.90625 -30.65625 18.15625 -30.65625 L 19.125 -30.65625 C 20.3125 -30.65625 21.316406 -31.175781 22.140625 -32.21875 C 22.960938 -33.257812 23.375 -34.703125 23.375 -36.546875 C 23.375 -37.679688 23.097656 -38.554688 22.546875 -39.171875 C 22.003906 -39.796875 21.257812 -40.109375 20.3125 -40.109375 Z M 19.28125 -40.109375 "/></g></g></g><g fill="#d32f23" fill-opacity="0.4196"><g transform="translate(120.129787, 76.573557)"><g><path d="M 20.171875 0 C 19.578125 0 19.226562 -0.320312 19.125 -0.96875 L 16.96875 -19.71875 C 16.96875 -19.914062 16.894531 -20.015625 16.75 -20.015625 C 16.550781 -20.015625 16.453125 -19.890625 16.453125 -19.640625 L 14.140625 -1.109375 C 14.085938 -0.765625 13.945312 -0.492188 13.71875 -0.296875 C 13.5 -0.0976562 13.242188 0 12.953125 0 L 1.484375 0 C 1.191406 0 0.957031 -0.0976562 0.78125 -0.296875 C 0.601562 -0.492188 0.539062 -0.765625 0.59375 -1.109375 L 6.703125 -50.984375 C 6.742188 -51.328125 6.875 -51.597656 7.09375 -51.796875 C 7.320312 -51.992188 7.585938 -52.09375 7.890625 -52.09375 L 24.1875 -52.09375 C 28.15625 -52.09375 31.289062 -50.828125 33.59375 -48.296875 C 35.90625 -45.765625 37.0625 -42.414062 37.0625 -38.25 C 37.0625 -37.0625 37.007812 -36.144531 36.90625 -35.5 C 36.5625 -32.769531 35.789062 -30.328125 34.59375 -28.171875 C 33.40625 -26.015625 31.867188 -24.265625 29.984375 -22.921875 C 29.742188 -22.773438 29.671875 -22.601562 29.765625 -22.40625 L 32.96875 -1.265625 L 32.96875 -0.96875 C 32.96875 -0.664062 32.867188 -0.425781 32.671875 -0.25 C 32.472656 -0.0820312 32.222656 0 31.921875 0 Z M 19.28125 -40.109375 C 19.03125 -40.109375 18.90625 -39.984375 18.90625 -39.734375 L 17.78125 -31.03125 C 17.78125 -30.78125 17.90625 -30.65625 18.15625 -30.65625 L 19.125 -30.65625 C 20.3125 -30.65625 21.316406 -31.175781 22.140625 -32.21875 C 22.960938 -33.257812 23.375 -34.703125 23.375 -36.546875 C 23.375 -37.679688 23.097656 -38.554688 22.546875 -39.171875 C 22.003906 -39.796875 21.257812 -40.109375 20.3125 -40.109375 Z M 19.28125 -40.109375 "/></g></g></g><g fill="#d32f23" fill-opacity="0.4196"><g transform="translate(155.480713, 76.573557)"><g><path d="M 23.140625 0 C 22.453125 0 22.128906 -0.347656 22.171875 -1.046875 L 22.03125 -6.703125 C 22.082031 -6.796875 22.054688 -6.878906 21.953125 -6.953125 C 21.859375 -7.023438 21.757812 -7.0625 21.65625 -7.0625 L 15.1875 -7.0625 C 14.9375 -7.0625 14.757812 -6.941406 14.65625 -6.703125 L 13.25 -1.046875 C 13.101562 -0.347656 12.679688 0 11.984375 0 L 0.671875 0 C -0.078125 0 -0.351562 -0.394531 -0.15625 -1.1875 L 16.21875 -51.125 C 16.414062 -51.769531 16.863281 -52.09375 17.5625 -52.09375 L 30.734375 -52.09375 C 31.429688 -52.09375 31.804688 -51.769531 31.859375 -51.125 L 35.953125 -1.1875 L 35.953125 -1.046875 C 35.953125 -0.347656 35.578125 0 34.828125 0 Z M 17.71875 -18.15625 C 17.613281 -17.90625 17.6875 -17.78125 17.9375 -17.78125 L 21.4375 -17.78125 C 21.582031 -17.78125 21.707031 -17.90625 21.8125 -18.15625 L 21.515625 -31.921875 C 21.515625 -32.117188 21.453125 -32.207031 21.328125 -32.1875 C 21.203125 -32.164062 21.140625 -32.078125 21.140625 -31.921875 Z M 17.71875 -18.15625 "/></g></g></g><g fill="#d32f23" fill-opacity="0.4196"><g transform="translate(193.808563, 76.573557)"><g><path d="M 15.703125 0.59375 C 11.390625 0.59375 7.976562 -0.59375 5.46875 -2.96875 C 2.96875 -5.351562 1.71875 -8.601562 1.71875 -12.71875 C 1.71875 -13.21875 1.765625 -14.0625 1.859375 -15.25 L 4.546875 -36.984375 C 5.140625 -41.796875 7.046875 -45.613281 10.265625 -48.4375 C 13.492188 -51.269531 17.488281 -52.6875 22.25 -52.6875 C 26.570312 -52.6875 29.992188 -51.507812 32.515625 -49.15625 C 35.046875 -46.800781 36.3125 -43.5625 36.3125 -39.4375 C 36.3125 -39 36.265625 -38.179688 36.171875 -36.984375 L 36.09375 -36.609375 C 36.039062 -36.265625 35.898438 -35.976562 35.671875 -35.75 C 35.453125 -35.53125 35.195312 -35.421875 34.90625 -35.421875 L 23.4375 -35.046875 C 22.695312 -35.046875 22.375 -35.394531 22.46875 -36.09375 L 22.703125 -37.953125 C 22.796875 -38.796875 22.671875 -39.460938 22.328125 -39.953125 C 21.984375 -40.453125 21.488281 -40.703125 20.84375 -40.703125 C 20.144531 -40.703125 19.554688 -40.453125 19.078125 -39.953125 C 18.609375 -39.460938 18.328125 -38.796875 18.234375 -37.953125 L 15.328125 -14.0625 C 15.234375 -13.269531 15.347656 -12.625 15.671875 -12.125 C 15.992188 -11.632812 16.5 -11.390625 17.1875 -11.390625 C 17.882812 -11.390625 18.46875 -11.625 18.9375 -12.09375 C 19.40625 -12.5625 19.691406 -13.21875 19.796875 -14.0625 L 20.015625 -16.078125 C 20.066406 -16.421875 20.203125 -16.675781 20.421875 -16.84375 C 20.648438 -17.019531 20.910156 -17.109375 21.203125 -17.109375 L 32.59375 -16.75 C 32.945312 -16.75 33.207031 -16.632812 33.375 -16.40625 C 33.550781 -16.1875 33.613281 -15.898438 33.5625 -15.546875 L 33.484375 -15.25 C 32.890625 -10.4375 30.96875 -6.59375 27.71875 -3.71875 C 24.46875 -0.84375 20.460938 0.59375 15.703125 0.59375 Z M 15.703125 0.59375 "/></g></g></g><g fill="#d32f23" fill-opacity="0.4196"><g transform="translate(228.191999, 76.573557)"><g><path d="M 15.921875 0.59375 C 11.503906 0.59375 8.03125 -0.609375 5.5 -3.015625 C 2.976562 -5.421875 1.71875 -8.679688 1.71875 -12.796875 C 1.71875 -13.296875 1.765625 -14.140625 1.859375 -15.328125 L 4.546875 -36.765625 C 5.140625 -41.628906 7.0625 -45.5 10.3125 -48.375 C 13.5625 -51.25 17.613281 -52.6875 22.46875 -52.6875 C 26.84375 -52.6875 30.304688 -51.484375 32.859375 -49.078125 C 35.410156 -46.671875 36.6875 -43.410156 36.6875 -39.296875 C 36.6875 -38.796875 36.640625 -37.953125 36.546875 -36.765625 L 33.9375 -15.328125 C 33.34375 -10.460938 31.40625 -6.59375 28.125 -3.71875 C 24.851562 -0.84375 20.785156 0.59375 15.921875 0.59375 Z M 17.421875 -11.390625 C 18.160156 -11.390625 18.789062 -11.6875 19.3125 -12.28125 C 19.832031 -12.875 20.164062 -13.691406 20.3125 -14.734375 L 23.078125 -37.359375 C 23.171875 -38.398438 23.039062 -39.21875 22.6875 -39.8125 C 22.34375 -40.40625 21.800781 -40.703125 21.0625 -40.703125 C 20.269531 -40.703125 19.613281 -40.40625 19.09375 -39.8125 C 18.570312 -39.21875 18.257812 -38.398438 18.15625 -37.359375 L 15.40625 -14.734375 C 15.351562 -14.535156 15.328125 -14.265625 15.328125 -13.921875 C 15.328125 -13.117188 15.515625 -12.492188 15.890625 -12.046875 C 16.265625 -11.609375 16.773438 -11.390625 17.421875 -11.390625 Z M 17.421875 -11.390625 "/></g></g></g><g fill="#d32f23" fill-opacity="0.4196"><g transform="translate(263.096394, 76.573557)"><g><path d="M 1.484375 0 C 1.191406 0 0.957031 -0.0976562 0.78125 -0.296875 C 0.601562 -0.492188 0.539062 -0.765625 0.59375 -1.109375 L 6.703125 -50.984375 C 6.742188 -51.328125 6.875 -51.597656 7.09375 -51.796875 C 7.320312 -51.992188 7.585938 -52.09375 7.890625 -52.09375 L 22.109375 -52.09375 C 26.523438 -52.09375 30.035156 -50.9375 32.640625 -48.625 C 35.242188 -46.320312 36.546875 -43.238281 36.546875 -39.375 C 36.546875 -38.925781 36.492188 -38.207031 36.390625 -37.21875 L 33.640625 -14.890625 C 33.296875 -11.960938 32.316406 -9.367188 30.703125 -7.109375 C 29.085938 -4.847656 26.976562 -3.097656 24.375 -1.859375 C 21.769531 -0.617188 18.878906 0 15.703125 0 Z M 15.546875 -12.359375 C 15.453125 -12.109375 15.554688 -11.984375 15.859375 -11.984375 L 16.890625 -12.0625 C 17.679688 -12.101562 18.382812 -12.472656 19 -13.171875 C 19.625 -13.867188 20.039062 -14.765625 20.25 -15.859375 L 22.703125 -36.3125 L 22.765625 -37.140625 C 22.765625 -38.078125 22.539062 -38.804688 22.09375 -39.328125 C 21.65625 -39.847656 21.0625 -40.109375 20.3125 -40.109375 L 19.28125 -40.109375 C 19.03125 -40.109375 18.90625 -39.984375 18.90625 -39.734375 Z M 15.546875 -12.359375 "/></g></g></g><g fill="#d32f23" fill-opacity="0.4196"><g transform="translate(298.000788, 76.573557)"><g><path d="M 23.140625 0 C 22.453125 0 22.128906 -0.347656 22.171875 -1.046875 L 22.03125 -6.703125 C 22.082031 -6.796875 22.054688 -6.878906 21.953125 -6.953125 C 21.859375 -7.023438 21.757812 -7.0625 21.65625 -7.0625 L 15.1875 -7.0625 C 14.9375 -7.0625 14.757812 -6.941406 14.65625 -6.703125 L 13.25 -1.046875 C 13.101562 -0.347656 12.679688 0 11.984375 0 L 0.671875 0 C -0.078125 0 -0.351562 -0.394531 -0.15625 -1.1875 L 16.21875 -51.125 C 16.414062 -51.769531 16.863281 -52.09375 17.5625 -52.09375 L 30.734375 -52.09375 C 31.429688 -52.09375 31.804688 -51.769531 31.859375 -51.125 L 35.953125 -1.1875 L 35.953125 -1.046875 C 35.953125 -0.347656 35.578125 0 34.828125 0 Z M 17.71875 -18.15625 C 17.613281 -17.90625 17.6875 -17.78125 17.9375 -17.78125 L 21.4375 -17.78125 C 21.582031 -17.78125 21.707031 -17.90625 21.8125 -18.15625 L 21.515625 -31.921875 C 21.515625 -32.117188 21.453125 -32.207031 21.328125 -32.1875 C 21.203125 -32.164062 21.140625 -32.078125 21.140625 -31.921875 Z M 17.71875 -18.15625 "/></g></g></g><g fill="#75c7fb" fill-opacity="1"><g transform="translate(9.334342, 74.581606)"><g><path d="M 34.15625 -14.953125 C 33.613281 -10.140625 31.71875 -6.441406 28.46875 -3.859375 C 25.21875 -1.285156 21.3125 0 16.75 0 L 1.484375 0 C 1.191406 0 0.957031 -0.0976562 0.78125 -0.296875 C 0.601562 -0.492188 0.539062 -0.765625 0.59375 -1.109375 L 6.703125 -50.984375 C 6.742188 -51.328125 6.875 -51.597656 7.09375 -51.796875 C 7.320312 -51.992188 7.585938 -52.09375 7.890625 -52.09375 L 20.984375 -52.09375 C 25.742188 -52.09375 29.453125 -51.085938 32.109375 -49.078125 C 34.765625 -47.066406 36.09375 -44.03125 36.09375 -39.96875 C 36.09375 -39.46875 36.046875 -38.625 35.953125 -37.4375 C 35.347656 -32.820312 33.535156 -29.394531 30.515625 -27.15625 C 30.210938 -27.007812 30.140625 -26.863281 30.296875 -26.71875 C 32.972656 -24.4375 34.3125 -21.234375 34.3125 -17.109375 C 34.3125 -16.671875 34.257812 -15.953125 34.15625 -14.953125 Z M 19.28125 -40.109375 C 19.03125 -40.109375 18.90625 -39.984375 18.90625 -39.734375 L 17.9375 -32.15625 C 17.9375 -31.90625 18.035156 -31.78125 18.234375 -31.78125 L 18.6875 -31.78125 C 20.8125 -31.78125 22.070312 -33.171875 22.46875 -35.953125 L 22.546875 -36.90625 C 22.546875 -39.039062 21.601562 -40.109375 19.71875 -40.109375 Z M 17.109375 -11.984375 C 18.203125 -11.984375 19.109375 -12.503906 19.828125 -13.546875 C 20.546875 -14.585938 20.90625 -16.078125 20.90625 -18.015625 C 20.90625 -19.148438 20.679688 -20.066406 20.234375 -20.765625 C 19.796875 -21.460938 19.175781 -21.8125 18.375 -21.8125 L 17.046875 -21.8125 C 16.796875 -21.8125 16.671875 -21.6875 16.671875 -21.4375 L 15.546875 -12.359375 C 15.453125 -12.109375 15.554688 -11.984375 15.859375 -11.984375 Z M 17.109375 -11.984375 "/></g></g></g><g fill="#75c7fb" fill-opacity="1"><g transform="translate(44.238725, 74.581606)"><g><path d="M 23.140625 0 C 22.453125 0 22.128906 -0.347656 22.171875 -1.046875 L 22.03125 -6.703125 C 22.082031 -6.796875 22.054688 -6.878906 21.953125 -6.953125 C 21.859375 -7.023438 21.757812 -7.0625 21.65625 -7.0625 L 15.1875 -7.0625 C 14.9375 -7.0625 14.757812 -6.941406 14.65625 -6.703125 L 13.25 -1.046875 C 13.101562 -0.347656 12.679688 0 11.984375 0 L 0.671875 0 C -0.078125 0 -0.351562 -0.394531 -0.15625 -1.1875 L 16.21875 -51.125 C 16.414062 -51.769531 16.863281 -52.09375 17.5625 -52.09375 L 30.734375 -52.09375 C 31.429688 -52.09375 31.804688 -51.769531 31.859375 -51.125 L 35.953125 -1.1875 L 35.953125 -1.046875 C 35.953125 -0.347656 35.578125 0 34.828125 0 Z M 17.71875 -18.15625 C 17.613281 -17.90625 17.6875 -17.78125 17.9375 -17.78125 L 21.4375 -17.78125 C 21.582031 -17.78125 21.707031 -17.90625 21.8125 -18.15625 L 21.515625 -31.921875 C 21.515625 -32.117188 21.453125 -32.207031 21.328125 -32.1875 C 21.203125 -32.164062 21.140625 -32.078125 21.140625 -31.921875 Z M 17.71875 -18.15625 "/></g></g></g><g fill="#75c7fb" fill-opacity="1"><g transform="translate(82.566575, 74.581606)"><g><path d="M 20.171875 0 C 19.578125 0 19.226562 -0.320312 19.125 -0.96875 L 16.96875 -19.71875 C 16.96875 -19.914062 16.894531 -20.015625 16.75 -20.015625 C 16.550781 -20.015625 16.453125 -19.890625 16.453125 -19.640625 L 14.140625 -1.109375 C 14.085938 -0.765625 13.945312 -0.492188 13.71875 -0.296875 C 13.5 -0.0976562 13.242188 0 12.953125 0 L 1.484375 0 C 1.191406 0 0.957031 -0.0976562 0.78125 -0.296875 C 0.601562 -0.492188 0.539062 -0.765625 0.59375 -1.109375 L 6.703125 -50.984375 C 6.742188 -51.328125 6.875 -51.597656 7.09375 -51.796875 C 7.320312 -51.992188 7.585938 -52.09375 7.890625 -52.09375 L 24.1875 -52.09375 C 28.15625 -52.09375 31.289062 -50.828125 33.59375 -48.296875 C 35.90625 -45.765625 37.0625 -42.414062 37.0625 -38.25 C 37.0625 -37.0625 37.007812 -36.144531 36.90625 -35.5 C 36.5625 -32.769531 35.789062 -30.328125 34.59375 -28.171875 C 33.40625 -26.015625 31.867188 -24.265625 29.984375 -22.921875 C 29.742188 -22.773438 29.671875 -22.601562 29.765625 -22.40625 L 32.96875 -1.265625 L 32.96875 -0.96875 C 32.96875 -0.664062 32.867188 -0.425781 32.671875 -0.25 C 32.472656 -0.0820312 32.222656 0 31.921875 0 Z M 19.28125 -40.109375 C 19.03125 -40.109375 18.90625 -39.984375 18.90625 -39.734375 L 17.78125 -31.03125 C 17.78125 -30.78125 17.90625 -30.65625 18.15625 -30.65625 L 19.125 -30.65625 C 20.3125 -30.65625 21.316406 -31.175781 22.140625 -32.21875 C 22.960938 -33.257812 23.375 -34.703125 23.375 -36.546875 C 23.375 -37.679688 23.097656 -38.554688 22.546875 -39.171875 C 22.003906 -39.796875 21.257812 -40.109375 20.3125 -40.109375 Z M 19.28125 -40.109375 "/></g></g></g><g fill="#75c7fb" fill-opacity="1"><g transform="translate(117.917502, 74.581606)"><g><path d="M 20.171875 0 C 19.578125 0 19.226562 -0.320312 19.125 -0.96875 L 16.96875 -19.71875 C 16.96875 -19.914062 16.894531 -20.015625 16.75 -20.015625 C 16.550781 -20.015625 16.453125 -19.890625 16.453125 -19.640625 L 14.140625 -1.109375 C 14.085938 -0.765625 13.945312 -0.492188 13.71875 -0.296875 C 13.5 -0.0976562 13.242188 0 12.953125 0 L 1.484375 0 C 1.191406 0 0.957031 -0.0976562 0.78125 -0.296875 C 0.601562 -0.492188 0.539062 -0.765625 0.59375 -1.109375 L 6.703125 -50.984375 C 6.742188 -51.328125 6.875 -51.597656 7.09375 -51.796875 C 7.320312 -51.992188 7.585938 -52.09375 7.890625 -52.09375 L 24.1875 -52.09375 C 28.15625 -52.09375 31.289062 -50.828125 33.59375 -48.296875 C 35.90625 -45.765625 37.0625 -42.414062 37.0625 -38.25 C 37.0625 -37.0625 37.007812 -36.144531 36.90625 -35.5 C 36.5625 -32.769531 35.789062 -30.328125 34.59375 -28.171875 C 33.40625 -26.015625 31.867188 -24.265625 29.984375 -22.921875 C 29.742188 -22.773438 29.671875 -22.601562 29.765625 -22.40625 L 32.96875 -1.265625 L 32.96875 -0.96875 C 32.96875 -0.664062 32.867188 -0.425781 32.671875 -0.25 C 32.472656 -0.0820312 32.222656 0 31.921875 0 Z M 19.28125 -40.109375 C 19.03125 -40.109375 18.90625 -39.984375 18.90625 -39.734375 L 17.78125 -31.03125 C 17.78125 -30.78125 17.90625 -30.65625 18.15625 -30.65625 L 19.125 -30.65625 C 20.3125 -30.65625 21.316406 -31.175781 22.140625 -32.21875 C 22.960938 -33.257812 23.375 -34.703125 23.375 -36.546875 C 23.375 -37.679688 23.097656 -38.554688 22.546875 -39.171875 C 22.003906 -39.796875 21.257812 -40.109375 20.3125 -40.109375 Z M 19.28125 -40.109375 "/></g></g></g><g fill="#75c7fb" fill-opacity="1"><g transform="translate(153.268428, 74.581606)"><g><path d="M 23.140625 0 C 22.453125 0 22.128906 -0.347656 22.171875 -1.046875 L 22.03125 -6.703125 C 22.082031 -6.796875 22.054688 -6.878906 21.953125 -6.953125 C 21.859375 -7.023438 21.757812 -7.0625 21.65625 -7.0625 L 15.1875 -7.0625 C 14.9375 -7.0625 14.757812 -6.941406 14.65625 -6.703125 L 13.25 -1.046875 C 13.101562 -0.347656 12.679688 0 11.984375 0 L 0.671875 0 C -0.078125 0 -0.351562 -0.394531 -0.15625 -1.1875 L 16.21875 -51.125 C 16.414062 -51.769531 16.863281 -52.09375 17.5625 -52.09375 L 30.734375 -52.09375 C 31.429688 -52.09375 31.804688 -51.769531 31.859375 -51.125 L 35.953125 -1.1875 L 35.953125 -1.046875 C 35.953125 -0.347656 35.578125 0 34.828125 0 Z M 17.71875 -18.15625 C 17.613281 -17.90625 17.6875 -17.78125 17.9375 -17.78125 L 21.4375 -17.78125 C 21.582031 -17.78125 21.707031 -17.90625 21.8125 -18.15625 L 21.515625 -31.921875 C 21.515625 -32.117188 21.453125 -32.207031 21.328125 -32.1875 C 21.203125 -32.164062 21.140625 -32.078125 21.140625 -31.921875 Z M 17.71875 -18.15625 "/></g></g></g><g fill="#75c7fb" fill-opacity="1"><g transform="translate(191.596278, 74.581606)"><g><path d="M 15.703125 0.59375 C 11.390625 0.59375 7.976562 -0.59375 5.46875 -2.96875 C 2.96875 -5.351562 1.71875 -8.601562 1.71875 -12.71875 C 1.71875 -13.21875 1.765625 -14.0625 1.859375 -15.25 L 4.546875 -36.984375 C 5.140625 -41.796875 7.046875 -45.613281 10.265625 -48.4375 C 13.492188 -51.269531 17.488281 -52.6875 22.25 -52.6875 C 26.570312 -52.6875 29.992188 -51.507812 32.515625 -49.15625 C 35.046875 -46.800781 36.3125 -43.5625 36.3125 -39.4375 C 36.3125 -39 36.265625 -38.179688 36.171875 -36.984375 L 36.09375 -36.609375 C 36.039062 -36.265625 35.898438 -35.976562 35.671875 -35.75 C 35.453125 -35.53125 35.195312 -35.421875 34.90625 -35.421875 L 23.4375 -35.046875 C 22.695312 -35.046875 22.375 -35.394531 22.46875 -36.09375 L 22.703125 -37.953125 C 22.796875 -38.796875 22.671875 -39.460938 22.328125 -39.953125 C 21.984375 -40.453125 21.488281 -40.703125 20.84375 -40.703125 C 20.144531 -40.703125 19.554688 -40.453125 19.078125 -39.953125 C 18.609375 -39.460938 18.328125 -38.796875 18.234375 -37.953125 L 15.328125 -14.0625 C 15.234375 -13.269531 15.347656 -12.625 15.671875 -12.125 C 15.992188 -11.632812 16.5 -11.390625 17.1875 -11.390625 C 17.882812 -11.390625 18.46875 -11.625 18.9375 -12.09375 C 19.40625 -12.5625 19.691406 -13.21875 19.796875 -14.0625 L 20.015625 -16.078125 C 20.066406 -16.421875 20.203125 -16.675781 20.421875 -16.84375 C 20.648438 -17.019531 20.910156 -17.109375 21.203125 -17.109375 L 32.59375 -16.75 C 32.945312 -16.75 33.207031 -16.632812 33.375 -16.40625 C 33.550781 -16.1875 33.613281 -15.898438 33.5625 -15.546875 L 33.484375 -15.25 C 32.890625 -10.4375 30.96875 -6.59375 27.71875 -3.71875 C 24.46875 -0.84375 20.460938 0.59375 15.703125 0.59375 Z M 15.703125 0.59375 "/></g></g></g><g fill="#75c7fb" fill-opacity="1"><g transform="translate(225.979714, 74.581606)"><g><path d="M 15.921875 0.59375 C 11.503906 0.59375 8.03125 -0.609375 5.5 -3.015625 C 2.976562 -5.421875 1.71875 -8.679688 1.71875 -12.796875 C 1.71875 -13.296875 1.765625 -14.140625 1.859375 -15.328125 L 4.546875 -36.765625 C 5.140625 -41.628906 7.0625 -45.5 10.3125 -48.375 C 13.5625 -51.25 17.613281 -52.6875 22.46875 -52.6875 C 26.84375 -52.6875 30.304688 -51.484375 32.859375 -49.078125 C 35.410156 -46.671875 36.6875 -43.410156 36.6875 -39.296875 C 36.6875 -38.796875 36.640625 -37.953125 36.546875 -36.765625 L 33.9375 -15.328125 C 33.34375 -10.460938 31.40625 -6.59375 28.125 -3.71875 C 24.851562 -0.84375 20.785156 0.59375 15.921875 0.59375 Z M 17.421875 -11.390625 C 18.160156 -11.390625 18.789062 -11.6875 19.3125 -12.28125 C 19.832031 -12.875 20.164062 -13.691406 20.3125 -14.734375 L 23.078125 -37.359375 C 23.171875 -38.398438 23.039062 -39.21875 22.6875 -39.8125 C 22.34375 -40.40625 21.800781 -40.703125 21.0625 -40.703125 C 20.269531 -40.703125 19.613281 -40.40625 19.09375 -39.8125 C 18.570312 -39.21875 18.257812 -38.398438 18.15625 -37.359375 L 15.40625 -14.734375 C 15.351562 -14.535156 15.328125 -14.265625 15.328125 -13.921875 C 15.328125 -13.117188 15.515625 -12.492188 15.890625 -12.046875 C 16.265625 -11.609375 16.773438 -11.390625 17.421875 -11.390625 Z M 17.421875 -11.390625 "/></g></g></g><g fill="#75c7fb" fill-opacity="1"><g transform="translate(260.884109, 74.581606)"><g><path d="M 1.484375 0 C 1.191406 0 0.957031 -0.0976562 0.78125 -0.296875 C 0.601562 -0.492188 0.539062 -0.765625 0.59375 -1.109375 L 6.703125 -50.984375 C 6.742188 -51.328125 6.875 -51.597656 7.09375 -51.796875 C 7.320312 -51.992188 7.585938 -52.09375 7.890625 -52.09375 L 22.109375 -52.09375 C 26.523438 -52.09375 30.035156 -50.9375 32.640625 -48.625 C 35.242188 -46.320312 36.546875 -43.238281 36.546875 -39.375 C 36.546875 -38.925781 36.492188 -38.207031 36.390625 -37.21875 L 33.640625 -14.890625 C 33.296875 -11.960938 32.316406 -9.367188 30.703125 -7.109375 C 29.085938 -4.847656 26.976562 -3.097656 24.375 -1.859375 C 21.769531 -0.617188 18.878906 0 15.703125 0 Z M 15.546875 -12.359375 C 15.453125 -12.109375 15.554688 -11.984375 15.859375 -11.984375 L 16.890625 -12.0625 C 17.679688 -12.101562 18.382812 -12.472656 19 -13.171875 C 19.625 -13.867188 20.039062 -14.765625 20.25 -15.859375 L 22.703125 -36.3125 L 22.765625 -37.140625 C 22.765625 -38.078125 22.539062 -38.804688 22.09375 -39.328125 C 21.65625 -39.847656 21.0625 -40.109375 20.3125 -40.109375 L 19.28125 -40.109375 C 19.03125 -40.109375 18.90625 -39.984375 18.90625 -39.734375 Z M 15.546875 -12.359375 "/></g></g></g><g fill="#75c7fb" fill-opacity="1"><g transform="translate(295.788503, 74.581606)"><g><path d="M 23.140625 0 C 22.453125 0 22.128906 -0.347656 22.171875 -1.046875 L 22.03125 -6.703125 C 22.082031 -6.796875 22.054688 -6.878906 21.953125 -6.953125 C 21.859375 -7.023438 21.757812 -7.0625 21.65625 -7.0625 L 15.1875 -7.0625 C 14.9375 -7.0625 14.757812 -6.941406 14.65625 -6.703125 L 13.25 -1.046875 C 13.101562 -0.347656 12.679688 0 11.984375 0 L 0.671875 0 C -0.078125 0 -0.351562 -0.394531 -0.15625 -1.1875 L 16.21875 -51.125 C 16.414062 -51.769531 16.863281 -52.09375 17.5625 -52.09375 L 30.734375 -52.09375 C 31.429688 -52.09375 31.804688 -51.769531 31.859375 -51.125 L 35.953125 -1.1875 L 35.953125 -1.046875 C 35.953125 -0.347656 35.578125 0 34.828125 0 Z M 17.71875 -18.15625 C 17.613281 -17.90625 17.6875 -17.78125 17.9375 -17.78125 L 21.4375 -17.78125 C 21.582031 -17.78125 21.707031 -17.90625 21.8125 -18.15625 L 21.515625 -31.921875 C 21.515625 -32.117188 21.453125 -32.207031 21.328125 -32.1875 C 21.203125 -32.164062 21.140625 -32.078125 21.140625 -31.921875 Z M 17.71875 -18.15625 "/></g></g></g><g fill="#d32f23" fill-opacity="0.4196"><g transform="translate(65.422725, 118.509829)"><g><path d="M 10.21875 0.390625 C 7.601562 0.390625 5.535156 -0.34375 4.015625 -1.8125 C 2.492188 -3.28125 1.734375 -5.269531 1.734375 -7.78125 C 1.734375 -8.113281 1.765625 -8.644531 1.828125 -9.375 L 3.8125 -25.453125 C 4.144531 -28.390625 5.296875 -30.734375 7.265625 -32.484375 C 9.234375 -34.242188 11.671875 -35.125 14.578125 -35.125 C 17.222656 -35.125 19.304688 -34.382812 20.828125 -32.90625 C 22.359375 -31.4375 23.125 -29.445312 23.125 -26.9375 C 23.125 -26.601562 23.085938 -26.109375 23.015625 -25.453125 L 22.921875 -24.90625 C 22.890625 -24.738281 22.8125 -24.597656 22.6875 -24.484375 C 22.570312 -24.367188 22.4375 -24.3125 22.28125 -24.3125 L 16.625 -24.0625 C 16.257812 -24.0625 16.09375 -24.242188 16.125 -24.609375 L 16.265625 -25.890625 C 16.304688 -26.023438 16.328125 -26.222656 16.328125 -26.484375 C 16.328125 -27.285156 16.101562 -27.925781 15.65625 -28.40625 C 15.207031 -28.882812 14.601562 -29.125 13.84375 -29.125 C 13.007812 -29.125 12.296875 -28.820312 11.703125 -28.21875 C 11.109375 -27.625 10.742188 -26.847656 10.609375 -25.890625 L 8.53125 -8.78125 C 8.5 -8.644531 8.484375 -8.460938 8.484375 -8.234375 C 8.484375 -7.441406 8.707031 -6.804688 9.15625 -6.328125 C 9.601562 -5.847656 10.191406 -5.609375 10.921875 -5.609375 C 11.773438 -5.609375 12.5 -5.894531 13.09375 -6.46875 C 13.6875 -7.050781 14.050781 -7.820312 14.1875 -8.78125 L 14.34375 -10.125 C 14.375 -10.289062 14.445312 -10.429688 14.5625 -10.546875 C 14.675781 -10.660156 14.816406 -10.71875 14.984375 -10.71875 L 20.59375 -10.46875 C 20.757812 -10.46875 20.890625 -10.410156 20.984375 -10.296875 C 21.085938 -10.179688 21.117188 -10.039062 21.078125 -9.875 L 21.03125 -9.375 C 20.664062 -6.394531 19.488281 -4.019531 17.5 -2.25 C 15.519531 -0.488281 13.09375 0.390625 10.21875 0.390625 Z M 10.21875 0.390625 "/></g></g></g><g fill="#d32f23" fill-opacity="0.4196"><g transform="translate(87.746195, 118.509829)"><g><path d="M 10.375 0.390625 C 7.6875 0.390625 5.570312 -0.34375 4.03125 -1.8125 C 2.5 -3.28125 1.734375 -5.289062 1.734375 -7.84375 C 1.734375 -8.164062 1.765625 -8.691406 1.828125 -9.421875 L 3.765625 -25.296875 C 4.128906 -28.273438 5.300781 -30.65625 7.28125 -32.4375 C 9.269531 -34.226562 11.738281 -35.125 14.6875 -35.125 C 17.363281 -35.125 19.476562 -34.382812 21.03125 -32.90625 C 22.582031 -31.4375 23.359375 -29.429688 23.359375 -26.890625 C 23.359375 -26.554688 23.328125 -26.023438 23.265625 -25.296875 L 21.328125 -9.421875 C 20.960938 -6.453125 19.78125 -4.070312 17.78125 -2.28125 C 15.78125 -0.5 13.3125 0.390625 10.375 0.390625 Z M 11.0625 -5.609375 C 11.988281 -5.609375 12.753906 -5.929688 13.359375 -6.578125 C 13.972656 -7.222656 14.347656 -8.070312 14.484375 -9.125 L 16.515625 -25.59375 C 16.546875 -25.726562 16.5625 -25.925781 16.5625 -26.1875 C 16.5625 -27.082031 16.332031 -27.796875 15.875 -28.328125 C 15.414062 -28.859375 14.785156 -29.125 13.984375 -29.125 C 13.097656 -29.125 12.347656 -28.800781 11.734375 -28.15625 C 11.117188 -27.507812 10.742188 -26.65625 10.609375 -25.59375 L 8.578125 -9.125 C 8.546875 -9 8.53125 -8.800781 8.53125 -8.53125 C 8.53125 -7.632812 8.757812 -6.921875 9.21875 -6.390625 C 9.6875 -5.867188 10.300781 -5.609375 11.0625 -5.609375 Z M 11.0625 -5.609375 "/></g></g></g><g fill="#d32f23" fill-opacity="0.4196"><g transform="translate(110.466525, 118.509829)"><g><path d="M 19.09375 -34.125 C 19.132812 -34.289062 19.210938 -34.429688 19.328125 -34.546875 C 19.441406 -34.671875 19.582031 -34.734375 19.75 -34.734375 L 25.34375 -34.734375 C 25.507812 -34.734375 25.640625 -34.671875 25.734375 -34.546875 C 25.835938 -34.429688 25.875 -34.289062 25.84375 -34.125 L 21.734375 -0.59375 C 21.691406 -0.425781 21.613281 -0.285156 21.5 -0.171875 C 21.382812 -0.0546875 21.242188 0 21.078125 0 L 14.734375 0 C 14.429688 0 14.234375 -0.164062 14.140625 -0.5 L 10.5625 -19.6875 C 10.53125 -19.789062 10.472656 -19.832031 10.390625 -19.8125 C 10.304688 -19.800781 10.265625 -19.742188 10.265625 -19.640625 L 7.984375 -0.59375 C 7.953125 -0.425781 7.867188 -0.285156 7.734375 -0.171875 C 7.609375 -0.0546875 7.460938 0 7.296875 0 L 1.734375 0 C 1.566406 0 1.429688 -0.0546875 1.328125 -0.171875 C 1.234375 -0.285156 1.203125 -0.425781 1.234375 -0.59375 L 5.359375 -34.125 C 5.390625 -34.289062 5.460938 -34.429688 5.578125 -34.546875 C 5.691406 -34.671875 5.832031 -34.734375 6 -34.734375 L 12.296875 -34.734375 C 12.597656 -34.734375 12.78125 -34.566406 12.84375 -34.234375 L 16.515625 -15.03125 C 16.546875 -14.9375 16.601562 -14.894531 16.6875 -14.90625 C 16.769531 -14.925781 16.8125 -14.984375 16.8125 -15.078125 Z M 19.09375 -34.125 "/></g></g></g><g fill="#d32f23" fill-opacity="0.4196"><g transform="translate(135.220771, 118.509829)"><g><path d="M 9.765625 0.390625 C 7.222656 0.390625 5.195312 -0.316406 3.6875 -1.734375 C 2.1875 -3.160156 1.4375 -5.03125 1.4375 -7.34375 C 1.4375 -7.632812 1.46875 -8.082031 1.53125 -8.6875 L 1.734375 -10.125 C 1.765625 -10.289062 1.835938 -10.429688 1.953125 -10.546875 C 2.078125 -10.660156 2.21875 -10.71875 2.375 -10.71875 L 7.890625 -10.71875 C 8.253906 -10.71875 8.4375 -10.519531 8.4375 -10.125 L 8.28125 -9.03125 C 8.25 -8.894531 8.234375 -8.695312 8.234375 -8.4375 C 8.234375 -7.570312 8.445312 -6.882812 8.875 -6.375 C 9.3125 -5.863281 9.875 -5.609375 10.5625 -5.609375 C 11.425781 -5.609375 12.160156 -5.960938 12.765625 -6.671875 C 13.378906 -7.378906 13.6875 -8.265625 13.6875 -9.328125 C 13.6875 -10.179688 13.40625 -10.9375 12.84375 -11.59375 C 12.28125 -12.257812 11.207031 -13.238281 9.625 -14.53125 C 8.300781 -15.59375 7.222656 -16.546875 6.390625 -17.390625 C 5.566406 -18.234375 4.863281 -19.238281 4.28125 -20.40625 C 3.707031 -21.582031 3.421875 -22.929688 3.421875 -24.453125 C 3.421875 -26.535156 3.875 -28.382812 4.78125 -30 C 5.695312 -31.625 6.957031 -32.882812 8.5625 -33.78125 C 10.164062 -34.675781 11.957031 -35.125 13.9375 -35.125 C 16.488281 -35.125 18.515625 -34.382812 20.015625 -32.90625 C 21.523438 -31.4375 22.28125 -29.476562 22.28125 -27.03125 C 22.28125 -26.738281 22.242188 -26.257812 22.171875 -25.59375 L 22.03125 -24.40625 C 22 -24.238281 21.914062 -24.097656 21.78125 -23.984375 C 21.644531 -23.867188 21.492188 -23.8125 21.328125 -23.8125 L 15.828125 -23.8125 C 15.660156 -23.8125 15.523438 -23.867188 15.421875 -23.984375 C 15.328125 -24.097656 15.296875 -24.238281 15.328125 -24.40625 L 15.484375 -25.75 C 15.515625 -25.882812 15.53125 -26.097656 15.53125 -26.390625 C 15.53125 -27.210938 15.320312 -27.875 14.90625 -28.375 C 14.488281 -28.875 13.921875 -29.125 13.203125 -29.125 C 12.335938 -29.125 11.613281 -28.765625 11.03125 -28.046875 C 10.457031 -27.335938 10.171875 -26.390625 10.171875 -25.203125 C 10.171875 -24.410156 10.441406 -23.65625 10.984375 -22.9375 C 11.535156 -22.226562 12.535156 -21.265625 13.984375 -20.046875 C 15.640625 -18.648438 16.890625 -17.53125 17.734375 -16.6875 C 18.578125 -15.84375 19.242188 -14.925781 19.734375 -13.9375 C 20.234375 -12.945312 20.484375 -11.804688 20.484375 -10.515625 C 20.484375 -10.253906 20.453125 -9.789062 20.390625 -9.125 C 20.023438 -6.21875 18.863281 -3.90625 16.90625 -2.1875 C 14.957031 -0.46875 12.578125 0.390625 9.765625 0.390625 Z M 9.765625 0.390625 "/></g></g></g><g fill="#d32f23" fill-opacity="0.4196"><g transform="translate(156.601689, 118.509829)"><g><path d="M 10.515625 0.390625 C 7.929688 0.390625 5.890625 -0.375 4.390625 -1.90625 C 2.890625 -3.445312 2.140625 -5.507812 2.140625 -8.09375 C 2.140625 -8.882812 2.171875 -9.476562 2.234375 -9.875 L 5.203125 -34.125 C 5.242188 -34.289062 5.320312 -34.429688 5.4375 -34.546875 C 5.550781 -34.671875 5.691406 -34.734375 5.859375 -34.734375 L 11.453125 -34.734375 C 11.816406 -34.734375 12 -34.53125 12 -34.125 L 8.9375 -9.171875 C 8.894531 -9.015625 8.875 -8.785156 8.875 -8.484375 C 8.875 -7.617188 9.085938 -6.921875 9.515625 -6.390625 C 9.953125 -5.867188 10.535156 -5.609375 11.265625 -5.609375 C 12.085938 -5.609375 12.785156 -5.9375 13.359375 -6.59375 C 13.941406 -7.257812 14.300781 -8.117188 14.4375 -9.171875 L 17.515625 -34.125 C 17.546875 -34.289062 17.617188 -34.429688 17.734375 -34.546875 C 17.847656 -34.671875 17.988281 -34.734375 18.15625 -34.734375 L 23.8125 -34.734375 C 23.976562 -34.734375 24.109375 -34.671875 24.203125 -34.546875 C 24.304688 -34.429688 24.34375 -34.289062 24.3125 -34.125 L 21.328125 -9.875 C 20.960938 -6.757812 19.785156 -4.269531 17.796875 -2.40625 C 15.816406 -0.539062 13.390625 0.390625 10.515625 0.390625 Z M 10.515625 0.390625 "/></g></g></g><g fill="#d32f23" fill-opacity="0.4196"><g transform="translate(179.669277, 118.509829)"><g><path d="M 1.734375 0 C 1.566406 0 1.429688 -0.0546875 1.328125 -0.171875 C 1.234375 -0.285156 1.203125 -0.425781 1.234375 -0.59375 L 5.359375 -34.125 C 5.390625 -34.289062 5.460938 -34.429688 5.578125 -34.546875 C 5.691406 -34.671875 5.832031 -34.734375 6 -34.734375 L 11.609375 -34.734375 C 11.972656 -34.734375 12.15625 -34.53125 12.15625 -34.125 L 8.734375 -6.25 C 8.660156 -6.082031 8.726562 -6 8.9375 -6 L 19 -6 C 19.363281 -6 19.546875 -5.800781 19.546875 -5.40625 L 18.953125 -0.59375 C 18.921875 -0.425781 18.84375 -0.285156 18.71875 -0.171875 C 18.601562 -0.0546875 18.46875 0 18.3125 0 Z M 1.734375 0 "/></g></g></g><g fill="#d32f23" fill-opacity="0.4196"><g transform="translate(200.157256, 118.509829)"><g><path d="M 24.109375 -34.734375 C 24.273438 -34.734375 24.40625 -34.671875 24.5 -34.546875 C 24.601562 -34.429688 24.640625 -34.289062 24.609375 -34.125 L 24.015625 -29.3125 C 23.984375 -29.15625 23.90625 -29.015625 23.78125 -28.890625 C 23.664062 -28.773438 23.523438 -28.71875 23.359375 -28.71875 L 17.3125 -28.71875 C 17.25 -28.71875 17.191406 -28.691406 17.140625 -28.640625 C 17.085938 -28.597656 17.0625 -28.539062 17.0625 -28.46875 L 13.640625 -0.59375 C 13.609375 -0.425781 13.535156 -0.285156 13.421875 -0.171875 C 13.304688 -0.0546875 13.164062 0 13 0 L 7.34375 0 C 7.175781 0 7.039062 -0.0546875 6.9375 -0.171875 C 6.84375 -0.285156 6.8125 -0.425781 6.84375 -0.59375 L 10.265625 -28.46875 C 10.335938 -28.632812 10.273438 -28.71875 10.078125 -28.71875 L 4.3125 -28.71875 C 3.945312 -28.71875 3.765625 -28.914062 3.765625 -29.3125 L 4.359375 -34.125 C 4.398438 -34.289062 4.476562 -34.429688 4.59375 -34.546875 C 4.707031 -34.671875 4.847656 -34.734375 5.015625 -34.734375 Z M 24.109375 -34.734375 "/></g></g></g><g fill="#d32f23" fill-opacity="0.4196"><g transform="translate(222.679151, 118.509829)"><g><path d="M 1.734375 0 C 1.566406 0 1.429688 -0.0546875 1.328125 -0.171875 C 1.234375 -0.285156 1.203125 -0.425781 1.234375 -0.59375 L 5.359375 -34.125 C 5.390625 -34.289062 5.460938 -34.429688 5.578125 -34.546875 C 5.691406 -34.671875 5.832031 -34.734375 6 -34.734375 L 11.609375 -34.734375 C 11.972656 -34.734375 12.15625 -34.53125 12.15625 -34.125 L 8.03125 -0.59375 C 8 -0.425781 7.914062 -0.285156 7.78125 -0.171875 C 7.65625 -0.0546875 7.507812 0 7.34375 0 Z M 1.734375 0 "/></g></g></g><g fill="#d32f23" fill-opacity="0.4196"><g transform="translate(233.741668, 118.509829)"><g><path d="M 19.09375 -34.125 C 19.132812 -34.289062 19.210938 -34.429688 19.328125 -34.546875 C 19.441406 -34.671875 19.582031 -34.734375 19.75 -34.734375 L 25.34375 -34.734375 C 25.507812 -34.734375 25.640625 -34.671875 25.734375 -34.546875 C 25.835938 -34.429688 25.875 -34.289062 25.84375 -34.125 L 21.734375 -0.59375 C 21.691406 -0.425781 21.613281 -0.285156 21.5 -0.171875 C 21.382812 -0.0546875 21.242188 0 21.078125 0 L 14.734375 0 C 14.429688 0 14.234375 -0.164062 14.140625 -0.5 L 10.5625 -19.6875 C 10.53125 -19.789062 10.472656 -19.832031 10.390625 -19.8125 C 10.304688 -19.800781 10.265625 -19.742188 10.265625 -19.640625 L 7.984375 -0.59375 C 7.953125 -0.425781 7.867188 -0.285156 7.734375 -0.171875 C 7.609375 -0.0546875 7.460938 0 7.296875 0 L 1.734375 0 C 1.566406 0 1.429688 -0.0546875 1.328125 -0.171875 C 1.234375 -0.285156 1.203125 -0.425781 1.234375 -0.59375 L 5.359375 -34.125 C 5.390625 -34.289062 5.460938 -34.429688 5.578125 -34.546875 C 5.691406 -34.671875 5.832031 -34.734375 6 -34.734375 L 12.296875 -34.734375 C 12.597656 -34.734375 12.78125 -34.566406 12.84375 -34.234375 L 16.515625 -15.03125 C 16.546875 -14.9375 16.601562 -14.894531 16.6875 -14.90625 C 16.769531 -14.925781 16.8125 -14.984375 16.8125 -15.078125 Z M 19.09375 -34.125 "/></g></g></g><g fill="#d32f23" fill-opacity="0.4196"><g transform="translate(258.495914, 118.509829)"><g><path d="M 10.21875 0.390625 C 7.570312 0.390625 5.488281 -0.316406 3.96875 -1.734375 C 2.445312 -3.160156 1.6875 -5.097656 1.6875 -7.546875 C 1.6875 -7.835938 1.71875 -8.316406 1.78125 -8.984375 L 3.8125 -25.75 C 4.144531 -28.59375 5.296875 -30.863281 7.265625 -32.5625 C 9.234375 -34.269531 11.671875 -35.125 14.578125 -35.125 C 17.191406 -35.125 19.269531 -34.40625 20.8125 -32.96875 C 22.351562 -31.53125 23.125 -29.585938 23.125 -27.140625 C 23.125 -26.835938 23.085938 -26.359375 23.015625 -25.703125 L 22.828125 -23.8125 C 22.785156 -23.644531 22.695312 -23.503906 22.5625 -23.390625 C 22.4375 -23.273438 22.289062 -23.21875 22.125 -23.21875 L 16.515625 -23.21875 C 16.347656 -23.21875 16.210938 -23.273438 16.109375 -23.390625 C 16.015625 -23.503906 15.988281 -23.644531 16.03125 -23.8125 L 16.265625 -25.796875 C 16.304688 -25.929688 16.328125 -26.128906 16.328125 -26.390625 C 16.328125 -27.210938 16.101562 -27.875 15.65625 -28.375 C 15.207031 -28.875 14.601562 -29.125 13.84375 -29.125 C 13.007812 -29.125 12.296875 -28.816406 11.703125 -28.203125 C 11.109375 -27.585938 10.742188 -26.785156 10.609375 -25.796875 L 8.53125 -8.9375 C 8.4375 -7.9375 8.601562 -7.128906 9.03125 -6.515625 C 9.457031 -5.910156 10.085938 -5.609375 10.921875 -5.609375 C 11.773438 -5.609375 12.5 -5.910156 13.09375 -6.515625 C 13.6875 -7.128906 14.050781 -7.9375 14.1875 -8.9375 L 14.6875 -12.90625 C 14.6875 -13.0625 14.617188 -13.140625 14.484375 -13.140625 L 12.359375 -13.140625 C 12.191406 -13.140625 12.054688 -13.195312 11.953125 -13.3125 C 11.859375 -13.4375 11.828125 -13.578125 11.859375 -13.734375 L 12.40625 -18.15625 C 12.40625 -18.320312 12.46875 -18.460938 12.59375 -18.578125 C 12.726562 -18.691406 12.878906 -18.75 13.046875 -18.75 L 21.578125 -18.75 C 21.941406 -18.75 22.125 -18.550781 22.125 -18.15625 L 20.984375 -8.984375 C 20.648438 -6.140625 19.488281 -3.863281 17.5 -2.15625 C 15.519531 -0.457031 13.09375 0.390625 10.21875 0.390625 Z M 10.21875 0.390625 "/></g></g></g><g fill="#ff3847" fill-opacity="1"><g transform="translate(63.947869, 117.181864)"><g><path d="M 10.21875 0.390625 C 7.601562 0.390625 5.535156 -0.34375 4.015625 -1.8125 C 2.492188 -3.28125 1.734375 -5.269531 1.734375 -7.78125 C 1.734375 -8.113281 1.765625 -8.644531 1.828125 -9.375 L 3.8125 -25.453125 C 4.144531 -28.390625 5.296875 -30.734375 7.265625 -32.484375 C 9.234375 -34.242188 11.671875 -35.125 14.578125 -35.125 C 17.222656 -35.125 19.304688 -34.382812 20.828125 -32.90625 C 22.359375 -31.4375 23.125 -29.445312 23.125 -26.9375 C 23.125 -26.601562 23.085938 -26.109375 23.015625 -25.453125 L 22.921875 -24.90625 C 22.890625 -24.738281 22.8125 -24.597656 22.6875 -24.484375 C 22.570312 -24.367188 22.4375 -24.3125 22.28125 -24.3125 L 16.625 -24.0625 C 16.257812 -24.0625 16.09375 -24.242188 16.125 -24.609375 L 16.265625 -25.890625 C 16.304688 -26.023438 16.328125 -26.222656 16.328125 -26.484375 C 16.328125 -27.285156 16.101562 -27.925781 15.65625 -28.40625 C 15.207031 -28.882812 14.601562 -29.125 13.84375 -29.125 C 13.007812 -29.125 12.296875 -28.820312 11.703125 -28.21875 C 11.109375 -27.625 10.742188 -26.847656 10.609375 -25.890625 L 8.53125 -8.78125 C 8.5 -8.644531 8.484375 -8.460938 8.484375 -8.234375 C 8.484375 -7.441406 8.707031 -6.804688 9.15625 -6.328125 C 9.601562 -5.847656 10.191406 -5.609375 10.921875 -5.609375 C 11.773438 -5.609375 12.5 -5.894531 13.09375 -6.46875 C 13.6875 -7.050781 14.050781 -7.820312 14.1875 -8.78125 L 14.34375 -10.125 C 14.375 -10.289062 14.445312 -10.429688 14.5625 -10.546875 C 14.675781 -10.660156 14.816406 -10.71875 14.984375 -10.71875 L 20.59375 -10.46875 C 20.757812 -10.46875 20.890625 -10.410156 20.984375 -10.296875 C 21.085938 -10.179688 21.117188 -10.039062 21.078125 -9.875 L 21.03125 -9.375 C 20.664062 -6.394531 19.488281 -4.019531 17.5 -2.25 C 15.519531 -0.488281 13.09375 0.390625 10.21875 0.390625 Z M 10.21875 0.390625 "/></g></g></g><g fill="#ff3847" fill-opacity="1"><g transform="translate(86.271339, 117.181864)"><g><path d="M 10.375 0.390625 C 7.6875 0.390625 5.570312 -0.34375 4.03125 -1.8125 C 2.5 -3.28125 1.734375 -5.289062 1.734375 -7.84375 C 1.734375 -8.164062 1.765625 -8.691406 1.828125 -9.421875 L 3.765625 -25.296875 C 4.128906 -28.273438 5.300781 -30.65625 7.28125 -32.4375 C 9.269531 -34.226562 11.738281 -35.125 14.6875 -35.125 C 17.363281 -35.125 19.476562 -34.382812 21.03125 -32.90625 C 22.582031 -31.4375 23.359375 -29.429688 23.359375 -26.890625 C 23.359375 -26.554688 23.328125 -26.023438 23.265625 -25.296875 L 21.328125 -9.421875 C 20.960938 -6.453125 19.78125 -4.070312 17.78125 -2.28125 C 15.78125 -0.5 13.3125 0.390625 10.375 0.390625 Z M 11.0625 -5.609375 C 11.988281 -5.609375 12.753906 -5.929688 13.359375 -6.578125 C 13.972656 -7.222656 14.347656 -8.070312 14.484375 -9.125 L 16.515625 -25.59375 C 16.546875 -25.726562 16.5625 -25.925781 16.5625 -26.1875 C 16.5625 -27.082031 16.332031 -27.796875 15.875 -28.328125 C 15.414062 -28.859375 14.785156 -29.125 13.984375 -29.125 C 13.097656 -29.125 12.347656 -28.800781 11.734375 -28.15625 C 11.117188 -27.507812 10.742188 -26.65625 10.609375 -25.59375 L 8.578125 -9.125 C 8.546875 -9 8.53125 -8.800781 8.53125 -8.53125 C 8.53125 -7.632812 8.757812 -6.921875 9.21875 -6.390625 C 9.6875 -5.867188 10.300781 -5.609375 11.0625 -5.609375 Z M 11.0625 -5.609375 "/></g></g></g><g fill="#ff3847" fill-opacity="1"><g transform="translate(108.991669, 117.181864)"><g><path d="M 19.09375 -34.125 C 19.132812 -34.289062 19.210938 -34.429688 19.328125 -34.546875 C 19.441406 -34.671875 19.582031 -34.734375 19.75 -34.734375 L 25.34375 -34.734375 C 25.507812 -34.734375 25.640625 -34.671875 25.734375 -34.546875 C 25.835938 -34.429688 25.875 -34.289062 25.84375 -34.125 L 21.734375 -0.59375 C 21.691406 -0.425781 21.613281 -0.285156 21.5 -0.171875 C 21.382812 -0.0546875 21.242188 0 21.078125 0 L 14.734375 0 C 14.429688 0 14.234375 -0.164062 14.140625 -0.5 L 10.5625 -19.6875 C 10.53125 -19.789062 10.472656 -19.832031 10.390625 -19.8125 C 10.304688 -19.800781 10.265625 -19.742188 10.265625 -19.640625 L 7.984375 -0.59375 C 7.953125 -0.425781 7.867188 -0.285156 7.734375 -0.171875 C 7.609375 -0.0546875 7.460938 0 7.296875 0 L 1.734375 0 C 1.566406 0 1.429688 -0.0546875 1.328125 -0.171875 C 1.234375 -0.285156 1.203125 -0.425781 1.234375 -0.59375 L 5.359375 -34.125 C 5.390625 -34.289062 5.460938 -34.429688 5.578125 -34.546875 C 5.691406 -34.671875 5.832031 -34.734375 6 -34.734375 L 12.296875 -34.734375 C 12.597656 -34.734375 12.78125 -34.566406 12.84375 -34.234375 L 16.515625 -15.03125 C 16.546875 -14.9375 16.601562 -14.894531 16.6875 -14.90625 C 16.769531 -14.925781 16.8125 -14.984375 16.8125 -15.078125 Z M 19.09375 -34.125 "/></g></g></g><g fill="#ff3847" fill-opacity="1"><g transform="translate(133.745916, 117.181864)"><g><path d="M 9.765625 0.390625 C 7.222656 0.390625 5.195312 -0.316406 3.6875 -1.734375 C 2.1875 -3.160156 1.4375 -5.03125 1.4375 -7.34375 C 1.4375 -7.632812 1.46875 -8.082031 1.53125 -8.6875 L 1.734375 -10.125 C 1.765625 -10.289062 1.835938 -10.429688 1.953125 -10.546875 C 2.078125 -10.660156 2.21875 -10.71875 2.375 -10.71875 L 7.890625 -10.71875 C 8.253906 -10.71875 8.4375 -10.519531 8.4375 -10.125 L 8.28125 -9.03125 C 8.25 -8.894531 8.234375 -8.695312 8.234375 -8.4375 C 8.234375 -7.570312 8.445312 -6.882812 8.875 -6.375 C 9.3125 -5.863281 9.875 -5.609375 10.5625 -5.609375 C 11.425781 -5.609375 12.160156 -5.960938 12.765625 -6.671875 C 13.378906 -7.378906 13.6875 -8.265625 13.6875 -9.328125 C 13.6875 -10.179688 13.40625 -10.9375 12.84375 -11.59375 C 12.28125 -12.257812 11.207031 -13.238281 9.625 -14.53125 C 8.300781 -15.59375 7.222656 -16.546875 6.390625 -17.390625 C 5.566406 -18.234375 4.863281 -19.238281 4.28125 -20.40625 C 3.707031 -21.582031 3.421875 -22.929688 3.421875 -24.453125 C 3.421875 -26.535156 3.875 -28.382812 4.78125 -30 C 5.695312 -31.625 6.957031 -32.882812 8.5625 -33.78125 C 10.164062 -34.675781 11.957031 -35.125 13.9375 -35.125 C 16.488281 -35.125 18.515625 -34.382812 20.015625 -32.90625 C 21.523438 -31.4375 22.28125 -29.476562 22.28125 -27.03125 C 22.28125 -26.738281 22.242188 -26.257812 22.171875 -25.59375 L 22.03125 -24.40625 C 22 -24.238281 21.914062 -24.097656 21.78125 -23.984375 C 21.644531 -23.867188 21.492188 -23.8125 21.328125 -23.8125 L 15.828125 -23.8125 C 15.660156 -23.8125 15.523438 -23.867188 15.421875 -23.984375 C 15.328125 -24.097656 15.296875 -24.238281 15.328125 -24.40625 L 15.484375 -25.75 C 15.515625 -25.882812 15.53125 -26.097656 15.53125 -26.390625 C 15.53125 -27.210938 15.320312 -27.875 14.90625 -28.375 C 14.488281 -28.875 13.921875 -29.125 13.203125 -29.125 C 12.335938 -29.125 11.613281 -28.765625 11.03125 -28.046875 C 10.457031 -27.335938 10.171875 -26.390625 10.171875 -25.203125 C 10.171875 -24.410156 10.441406 -23.65625 10.984375 -22.9375 C 11.535156 -22.226562 12.535156 -21.265625 13.984375 -20.046875 C 15.640625 -18.648438 16.890625 -17.53125 17.734375 -16.6875 C 18.578125 -15.84375 19.242188 -14.925781 19.734375 -13.9375 C 20.234375 -12.945312 20.484375 -11.804688 20.484375 -10.515625 C 20.484375 -10.253906 20.453125 -9.789062 20.390625 -9.125 C 20.023438 -6.21875 18.863281 -3.90625 16.90625 -2.1875 C 14.957031 -0.46875 12.578125 0.390625 9.765625 0.390625 Z M 9.765625 0.390625 "/></g></g></g><g fill="#ff3847" fill-opacity="1"><g transform="translate(155.126833, 117.181864)"><g><path d="M 10.515625 0.390625 C 7.929688 0.390625 5.890625 -0.375 4.390625 -1.90625 C 2.890625 -3.445312 2.140625 -5.507812 2.140625 -8.09375 C 2.140625 -8.882812 2.171875 -9.476562 2.234375 -9.875 L 5.203125 -34.125 C 5.242188 -34.289062 5.320312 -34.429688 5.4375 -34.546875 C 5.550781 -34.671875 5.691406 -34.734375 5.859375 -34.734375 L 11.453125 -34.734375 C 11.816406 -34.734375 12 -34.53125 12 -34.125 L 8.9375 -9.171875 C 8.894531 -9.015625 8.875 -8.785156 8.875 -8.484375 C 8.875 -7.617188 9.085938 -6.921875 9.515625 -6.390625 C 9.953125 -5.867188 10.535156 -5.609375 11.265625 -5.609375 C 12.085938 -5.609375 12.785156 -5.9375 13.359375 -6.59375 C 13.941406 -7.257812 14.300781 -8.117188 14.4375 -9.171875 L 17.515625 -34.125 C 17.546875 -34.289062 17.617188 -34.429688 17.734375 -34.546875 C 17.847656 -34.671875 17.988281 -34.734375 18.15625 -34.734375 L 23.8125 -34.734375 C 23.976562 -34.734375 24.109375 -34.671875 24.203125 -34.546875 C 24.304688 -34.429688 24.34375 -34.289062 24.3125 -34.125 L 21.328125 -9.875 C 20.960938 -6.757812 19.785156 -4.269531 17.796875 -2.40625 C 15.816406 -0.539062 13.390625 0.390625 10.515625 0.390625 Z M 10.515625 0.390625 "/></g></g></g><g fill="#ff3847" fill-opacity="1"><g transform="translate(178.194421, 117.181864)"><g><path d="M 1.734375 0 C 1.566406 0 1.429688 -0.0546875 1.328125 -0.171875 C 1.234375 -0.285156 1.203125 -0.425781 1.234375 -0.59375 L 5.359375 -34.125 C 5.390625 -34.289062 5.460938 -34.429688 5.578125 -34.546875 C 5.691406 -34.671875 5.832031 -34.734375 6 -34.734375 L 11.609375 -34.734375 C 11.972656 -34.734375 12.15625 -34.53125 12.15625 -34.125 L 8.734375 -6.25 C 8.660156 -6.082031 8.726562 -6 8.9375 -6 L 19 -6 C 19.363281 -6 19.546875 -5.800781 19.546875 -5.40625 L 18.953125 -0.59375 C 18.921875 -0.425781 18.84375 -0.285156 18.71875 -0.171875 C 18.601562 -0.0546875 18.46875 0 18.3125 0 Z M 1.734375 0 "/></g></g></g><g fill="#ff3847" fill-opacity="1"><g transform="translate(198.6824, 117.181864)"><g><path d="M 24.109375 -34.734375 C 24.273438 -34.734375 24.40625 -34.671875 24.5 -34.546875 C 24.601562 -34.429688 24.640625 -34.289062 24.609375 -34.125 L 24.015625 -29.3125 C 23.984375 -29.15625 23.90625 -29.015625 23.78125 -28.890625 C 23.664062 -28.773438 23.523438 -28.71875 23.359375 -28.71875 L 17.3125 -28.71875 C 17.25 -28.71875 17.191406 -28.691406 17.140625 -28.640625 C 17.085938 -28.597656 17.0625 -28.539062 17.0625 -28.46875 L 13.640625 -0.59375 C 13.609375 -0.425781 13.535156 -0.285156 13.421875 -0.171875 C 13.304688 -0.0546875 13.164062 0 13 0 L 7.34375 0 C 7.175781 0 7.039062 -0.0546875 6.9375 -0.171875 C 6.84375 -0.285156 6.8125 -0.425781 6.84375 -0.59375 L 10.265625 -28.46875 C 10.335938 -28.632812 10.273438 -28.71875 10.078125 -28.71875 L 4.3125 -28.71875 C 3.945312 -28.71875 3.765625 -28.914062 3.765625 -29.3125 L 4.359375 -34.125 C 4.398438 -34.289062 4.476562 -34.429688 4.59375 -34.546875 C 4.707031 -34.671875 4.847656 -34.734375 5.015625 -34.734375 Z M 24.109375 -34.734375 "/></g></g></g><g fill="#ff3847" fill-opacity="1"><g transform="translate(221.204295, 117.181864)"><g><path d="M 1.734375 0 C 1.566406 0 1.429688 -0.0546875 1.328125 -0.171875 C 1.234375 -0.285156 1.203125 -0.425781 1.234375 -0.59375 L 5.359375 -34.125 C 5.390625 -34.289062 5.460938 -34.429688 5.578125 -34.546875 C 5.691406 -34.671875 5.832031 -34.734375 6 -34.734375 L 11.609375 -34.734375 C 11.972656 -34.734375 12.15625 -34.53125 12.15625 -34.125 L 8.03125 -0.59375 C 8 -0.425781 7.914062 -0.285156 7.78125 -0.171875 C 7.65625 -0.0546875 7.507812 0 7.34375 0 Z M 1.734375 0 "/></g></g></g><g fill="#ff3847" fill-opacity="1"><g transform="translate(232.266812, 117.181864)"><g><path d="M 19.09375 -34.125 C 19.132812 -34.289062 19.210938 -34.429688 19.328125 -34.546875 C 19.441406 -34.671875 19.582031 -34.734375 19.75 -34.734375 L 25.34375 -34.734375 C 25.507812 -34.734375 25.640625 -34.671875 25.734375 -34.546875 C 25.835938 -34.429688 25.875 -34.289062 25.84375 -34.125 L 21.734375 -0.59375 C 21.691406 -0.425781 21.613281 -0.285156 21.5 -0.171875 C 21.382812 -0.0546875 21.242188 0 21.078125 0 L 14.734375 0 C 14.429688 0 14.234375 -0.164062 14.140625 -0.5 L 10.5625 -19.6875 C 10.53125 -19.789062 10.472656 -19.832031 10.390625 -19.8125 C 10.304688 -19.800781 10.265625 -19.742188 10.265625 -19.640625 L 7.984375 -0.59375 C 7.953125 -0.425781 7.867188 -0.285156 7.734375 -0.171875 C 7.609375 -0.0546875 7.460938 0 7.296875 0 L 1.734375 0 C 1.566406 0 1.429688 -0.0546875 1.328125 -0.171875 C 1.234375 -0.285156 1.203125 -0.425781 1.234375 -0.59375 L 5.359375 -34.125 C 5.390625 -34.289062 5.460938 -34.429688 5.578125 -34.546875 C 5.691406 -34.671875 5.832031 -34.734375 6 -34.734375 L 12.296875 -34.734375 C 12.597656 -34.734375 12.78125 -34.566406 12.84375 -34.234375 L 16.515625 -15.03125 C 16.546875 -14.9375 16.601562 -14.894531 16.6875 -14.90625 C 16.769531 -14.925781 16.8125 -14.984375 16.8125 -15.078125 Z M 19.09375 -34.125 "/></g></g></g><g fill="#ff3847" fill-opacity="1"><g transform="translate(257.021058, 117.181864)"><g><path d="M 10.21875 0.390625 C 7.570312 0.390625 5.488281 -0.316406 3.96875 -1.734375 C 2.445312 -3.160156 1.6875 -5.097656 1.6875 -7.546875 C 1.6875 -7.835938 1.71875 -8.316406 1.78125 -8.984375 L 3.8125 -25.75 C 4.144531 -28.59375 5.296875 -30.863281 7.265625 -32.5625 C 9.234375 -34.269531 11.671875 -35.125 14.578125 -35.125 C 17.191406 -35.125 19.269531 -34.40625 20.8125 -32.96875 C 22.351562 -31.53125 23.125 -29.585938 23.125 -27.140625 C 23.125 -26.835938 23.085938 -26.359375 23.015625 -25.703125 L 22.828125 -23.8125 C 22.785156 -23.644531 22.695312 -23.503906 22.5625 -23.390625 C 22.4375 -23.273438 22.289062 -23.21875 22.125 -23.21875 L 16.515625 -23.21875 C 16.347656 -23.21875 16.210938 -23.273438 16.109375 -23.390625 C 16.015625 -23.503906 15.988281 -23.644531 16.03125 -23.8125 L 16.265625 -25.796875 C 16.304688 -25.929688 16.328125 -26.128906 16.328125 -26.390625 C 16.328125 -27.210938 16.101562 -27.875 15.65625 -28.375 C 15.207031 -28.875 14.601562 -29.125 13.84375 -29.125 C 13.007812 -29.125 12.296875 -28.816406 11.703125 -28.203125 C 11.109375 -27.585938 10.742188 -26.785156 10.609375 -25.796875 L 8.53125 -8.9375 C 8.4375 -7.9375 8.601562 -7.128906 9.03125 -6.515625 C 9.457031 -5.910156 10.085938 -5.609375 10.921875 -5.609375 C 11.773438 -5.609375 12.5 -5.910156 13.09375 -6.515625 C 13.6875 -7.128906 14.050781 -7.9375 14.1875 -8.9375 L 14.6875 -12.90625 C 14.6875 -13.0625 14.617188 -13.140625 14.484375 -13.140625 L 12.359375 -13.140625 C 12.191406 -13.140625 12.054688 -13.195312 11.953125 -13.3125 C 11.859375 -13.4375 11.828125 -13.578125 11.859375 -13.734375 L 12.40625 -18.15625 C 12.40625 -18.320312 12.46875 -18.460938 12.59375 -18.578125 C 12.726562 -18.691406 12.878906 -18.75 13.046875 -18.75 L 21.578125 -18.75 C 21.941406 -18.75 22.125 -18.550781 22.125 -18.15625 L 20.984375 -8.984375 C 20.648438 -6.140625 19.488281 -3.863281 17.5 -2.15625 C 15.519531 -0.457031 13.09375 0.390625 10.21875 0.390625 Z M 10.21875 0.390625 "/></g></g></g></svg>